<?xml version="1.0" encoding="utf-8"?>
<!-- Generator: Adobe Illustrator 13.0.0, SVG Export Plug-In . SVG Version: 6.00 Build 14948)  -->
<!DOCTYPE svg PUBLIC "-//W3C//DTD SVG 1.1//EN" "http://www.w3.org/Graphics/SVG/1.1/DTD/svg11.dtd">
<svg xmlns="http://www.w3.org/2000/svg" xmlns:xlink="http://www.w3.org/1999/xlink" version="1.1" id="Layer_1" x="0px" y="0px" width="520px" height="468px" viewBox="0 0 520 468" enable-background="new 0 0 520 468" xml:space="preserve">
<rect x="-0.167" y="-0.167" fill="none" width="519.333" height="468"/>
<path fill="none" stroke="#000000" stroke-width="8" d="M269.362,381.152c-1.752,4.805-14.266,26.431-54.75,1.468  c-40.836-20.417-43.842-20.557-48.876-23.703c-5.034-3.147-26.641-16.012-40.904-32.514c-14.265-16.502-21.956-21.675-17.901-37.198  c4.056-15.523,26.989-28.318,30.625-30.907c3.637-2.587,37.619-28.109,37.619-28.109s14.403-13.005,3.635-28.248  c-10.767-15.244-29.507-4.895-29.507-4.895s-72.964,46.045-76.775,48.526c-9.265,6.258-23.712,19.891-27.466,48.537  c-2.588,19.753,6.874,49.39,35.018,68.094c5.104,3.006,143.34,75.937,143.34,75.937s38.598,23.493,77.335,13.284  c38.737-10.207,45.169-39.016,45.729-45.449c0.561-6.433-4.754-30.486-4.754-30.486l-27.27-139.705c0,0-11.748-30.207,33.981-33.982  c45.73-3.776,47.933-9.125,53.701-10.909c5.77-1.783,36.081-11.747,42.373-46.568c0,0,8.706-39.751,9.439-44.681  c0.734-4.929,3.356-43.212-27.06-69.014c0,0-27.06-22.025-58.525-15.313c-31.465,6.713-109.289,29.158-112.646,29.997  c-3.355,0.839-38.178,3.776-36.29,42.164c1.888,38.388,13.005,126.28,13.005,126.28s2.623,42.898,3.147,45.101  c0.524,2.203,6.607,33.667,14.473,45.1C257.93,315.389,276.703,361.015,269.362,381.152z"/>
</svg>
